<mxfile host="Electron" agent="Mozilla/5.0 (Windows NT 10.0; Win64; x64) AppleWebKit/537.36 (KHTML, like Gecko) draw.io/24.7.8 Chrome/128.0.6613.36 Electron/32.0.1 Safari/537.36" version="24.7.8">
  <diagram name="Page-1" id="CkprECCr8eU1bd0QRFGl">
    <mxGraphModel dx="1290" dy="621" grid="1" gridSize="10" guides="1" tooltips="1" connect="1" arrows="1" fold="1" page="1" pageScale="1" pageWidth="827" pageHeight="1169" math="0" shadow="0">
      <root>
        <mxCell id="0" />
        <mxCell id="1" parent="0" />
        <mxCell id="b32nRzFaaJzHV_adRIwW-1" value="Corso" style="rounded=0;whiteSpace=wrap;html=1;" parent="1" vertex="1">
          <mxGeometry x="120" y="110" width="120" height="60" as="geometry" />
        </mxCell>
        <mxCell id="b32nRzFaaJzHV_adRIwW-2" value="Insegnante" style="rounded=0;whiteSpace=wrap;html=1;" parent="1" vertex="1">
          <mxGeometry x="560" y="110" width="120" height="60" as="geometry" />
        </mxCell>
        <mxCell id="b32nRzFaaJzHV_adRIwW-4" value="Studente" style="rounded=0;whiteSpace=wrap;html=1;" parent="1" vertex="1">
          <mxGeometry x="115" y="490" width="120" height="60" as="geometry" />
        </mxCell>
        <mxCell id="b32nRzFaaJzHV_adRIwW-5" value="Esame" style="rounded=0;whiteSpace=wrap;html=1;" parent="1" vertex="1">
          <mxGeometry x="585" y="490" width="120" height="60" as="geometry" />
        </mxCell>
        <mxCell id="b32nRzFaaJzHV_adRIwW-6" value="Risultato" style="shape=associativeEntity;whiteSpace=wrap;html=1;align=center;" parent="1" vertex="1">
          <mxGeometry x="338.5" y="490" width="140" height="60" as="geometry" />
        </mxCell>
        <mxCell id="b32nRzFaaJzHV_adRIwW-8" value="presenta" style="rhombus;whiteSpace=wrap;html=1;" parent="1" vertex="1">
          <mxGeometry x="340" y="100" width="130" height="80" as="geometry" />
        </mxCell>
        <mxCell id="b32nRzFaaJzHV_adRIwW-9" value="" style="endArrow=none;html=1;rounded=0;entryX=0;entryY=0.5;entryDx=0;entryDy=0;exitX=1;exitY=0.5;exitDx=0;exitDy=0;" parent="1" source="b32nRzFaaJzHV_adRIwW-8" target="b32nRzFaaJzHV_adRIwW-2" edge="1">
          <mxGeometry width="50" height="50" relative="1" as="geometry">
            <mxPoint x="580" y="350" as="sourcePoint" />
            <mxPoint x="630" y="300" as="targetPoint" />
          </mxGeometry>
        </mxCell>
        <mxCell id="b32nRzFaaJzHV_adRIwW-10" value="" style="endArrow=none;html=1;rounded=0;entryX=0;entryY=0.5;entryDx=0;entryDy=0;exitX=1;exitY=0.5;exitDx=0;exitDy=0;" parent="1" source="b32nRzFaaJzHV_adRIwW-1" target="b32nRzFaaJzHV_adRIwW-8" edge="1">
          <mxGeometry width="50" height="50" relative="1" as="geometry">
            <mxPoint x="580" y="350" as="sourcePoint" />
            <mxPoint x="630" y="300" as="targetPoint" />
          </mxGeometry>
        </mxCell>
        <mxCell id="b32nRzFaaJzHV_adRIwW-11" value="" style="endArrow=none;html=1;rounded=0;" parent="1" edge="1" source="b32nRzFaaJzHV_adRIwW-3">
          <mxGeometry width="50" height="50" relative="1" as="geometry">
            <mxPoint x="176" y="360" as="sourcePoint" />
            <mxPoint x="176" y="170" as="targetPoint" />
          </mxGeometry>
        </mxCell>
        <mxCell id="b32nRzFaaJzHV_adRIwW-12" value="" style="endArrow=none;html=1;rounded=0;entryX=0.5;entryY=1;entryDx=0;entryDy=0;exitX=0.5;exitY=0;exitDx=0;exitDy=0;" parent="1" source="b32nRzFaaJzHV_adRIwW-4" target="b32nRzFaaJzHV_adRIwW-3" edge="1">
          <mxGeometry width="50" height="50" relative="1" as="geometry">
            <mxPoint x="575" y="480" as="sourcePoint" />
            <mxPoint x="625" y="430" as="targetPoint" />
          </mxGeometry>
        </mxCell>
        <mxCell id="b32nRzFaaJzHV_adRIwW-13" value="" style="endArrow=none;html=1;rounded=0;exitX=1;exitY=0.5;exitDx=0;exitDy=0;entryX=0;entryY=0.5;entryDx=0;entryDy=0;" parent="1" source="b32nRzFaaJzHV_adRIwW-4" target="b32nRzFaaJzHV_adRIwW-6" edge="1">
          <mxGeometry width="50" height="50" relative="1" as="geometry">
            <mxPoint x="575" y="480" as="sourcePoint" />
            <mxPoint x="625" y="430" as="targetPoint" />
          </mxGeometry>
        </mxCell>
        <mxCell id="b32nRzFaaJzHV_adRIwW-14" value="" style="endArrow=none;html=1;rounded=0;exitX=1;exitY=0.5;exitDx=0;exitDy=0;entryX=0;entryY=0.5;entryDx=0;entryDy=0;" parent="1" source="b32nRzFaaJzHV_adRIwW-6" target="b32nRzFaaJzHV_adRIwW-5" edge="1">
          <mxGeometry width="50" height="50" relative="1" as="geometry">
            <mxPoint x="575" y="480" as="sourcePoint" />
            <mxPoint x="625" y="430" as="targetPoint" />
          </mxGeometry>
        </mxCell>
        <mxCell id="b32nRzFaaJzHV_adRIwW-15" value="appartiene" style="rhombus;whiteSpace=wrap;html=1;rotation=0;" parent="1" vertex="1">
          <mxGeometry x="350" y="280" width="150" height="70" as="geometry" />
        </mxCell>
        <mxCell id="b32nRzFaaJzHV_adRIwW-16" value="" style="endArrow=none;html=1;rounded=0;entryX=1;entryY=1;entryDx=0;entryDy=0;exitX=0;exitY=0;exitDx=0;exitDy=0;" parent="1" source="b32nRzFaaJzHV_adRIwW-15" target="b32nRzFaaJzHV_adRIwW-1" edge="1">
          <mxGeometry width="50" height="50" relative="1" as="geometry">
            <mxPoint x="580" y="350" as="sourcePoint" />
            <mxPoint x="630" y="300" as="targetPoint" />
          </mxGeometry>
        </mxCell>
        <mxCell id="b32nRzFaaJzHV_adRIwW-17" value="" style="endArrow=none;html=1;rounded=0;exitX=0.673;exitY=0.871;exitDx=0;exitDy=0;entryX=0.5;entryY=0;entryDx=0;entryDy=0;exitPerimeter=0;" parent="1" source="b32nRzFaaJzHV_adRIwW-15" target="b32nRzFaaJzHV_adRIwW-5" edge="1">
          <mxGeometry width="50" height="50" relative="1" as="geometry">
            <mxPoint x="580" y="350" as="sourcePoint" />
            <mxPoint x="630" y="300" as="targetPoint" />
          </mxGeometry>
        </mxCell>
        <mxCell id="b32nRzFaaJzHV_adRIwW-18" value="nome" style="ellipse;whiteSpace=wrap;html=1;align=center;" parent="1" vertex="1">
          <mxGeometry x="70" y="40" width="100" height="40" as="geometry" />
        </mxCell>
        <mxCell id="b32nRzFaaJzHV_adRIwW-19" value="email" style="ellipse;whiteSpace=wrap;html=1;align=center;" parent="1" vertex="1">
          <mxGeometry x="70" y="600" width="100" height="40" as="geometry" />
        </mxCell>
        <mxCell id="b32nRzFaaJzHV_adRIwW-20" value="matricola" style="ellipse;whiteSpace=wrap;html=1;align=center;" parent="1" vertex="1">
          <mxGeometry x="180" y="600" width="100" height="40" as="geometry" />
        </mxCell>
        <mxCell id="b32nRzFaaJzHV_adRIwW-21" value="data/ora" style="ellipse;whiteSpace=wrap;html=1;align=center;" parent="1" vertex="1">
          <mxGeometry x="530" y="600" width="100" height="40" as="geometry" />
        </mxCell>
        <mxCell id="b32nRzFaaJzHV_adRIwW-22" value="crediti" style="ellipse;whiteSpace=wrap;html=1;align=center;" parent="1" vertex="1">
          <mxGeometry x="190" y="40" width="100" height="40" as="geometry" />
        </mxCell>
        <mxCell id="b32nRzFaaJzHV_adRIwW-23" value="durata" style="ellipse;whiteSpace=wrap;html=1;align=center;" parent="1" vertex="1">
          <mxGeometry x="660" y="600" width="100" height="40" as="geometry" />
        </mxCell>
        <mxCell id="b32nRzFaaJzHV_adRIwW-24" value="voto" style="ellipse;whiteSpace=wrap;html=1;align=center;" parent="1" vertex="1">
          <mxGeometry x="358.5" y="600" width="100" height="40" as="geometry" />
        </mxCell>
        <mxCell id="b32nRzFaaJzHV_adRIwW-25" value="nome" style="ellipse;whiteSpace=wrap;html=1;align=center;" parent="1" vertex="1">
          <mxGeometry x="500" y="40" width="100" height="40" as="geometry" />
        </mxCell>
        <mxCell id="b32nRzFaaJzHV_adRIwW-26" value="email" style="ellipse;whiteSpace=wrap;html=1;align=center;" parent="1" vertex="1">
          <mxGeometry x="640" y="40" width="100" height="40" as="geometry" />
        </mxCell>
        <mxCell id="b32nRzFaaJzHV_adRIwW-27" value="" style="endArrow=none;html=1;rounded=0;entryX=0.5;entryY=1;entryDx=0;entryDy=0;exitX=0.5;exitY=0;exitDx=0;exitDy=0;" parent="1" source="b32nRzFaaJzHV_adRIwW-1" target="b32nRzFaaJzHV_adRIwW-18" edge="1">
          <mxGeometry width="50" height="50" relative="1" as="geometry">
            <mxPoint x="580" y="350" as="sourcePoint" />
            <mxPoint x="630" y="300" as="targetPoint" />
          </mxGeometry>
        </mxCell>
        <mxCell id="b32nRzFaaJzHV_adRIwW-28" value="" style="endArrow=none;html=1;rounded=0;entryX=0.5;entryY=1;entryDx=0;entryDy=0;exitX=0.5;exitY=0;exitDx=0;exitDy=0;" parent="1" source="b32nRzFaaJzHV_adRIwW-1" target="b32nRzFaaJzHV_adRIwW-22" edge="1">
          <mxGeometry width="50" height="50" relative="1" as="geometry">
            <mxPoint x="580" y="350" as="sourcePoint" />
            <mxPoint x="630" y="300" as="targetPoint" />
          </mxGeometry>
        </mxCell>
        <mxCell id="b32nRzFaaJzHV_adRIwW-29" value="" style="endArrow=none;html=1;rounded=0;entryX=0.5;entryY=1;entryDx=0;entryDy=0;exitX=0.5;exitY=0;exitDx=0;exitDy=0;" parent="1" source="b32nRzFaaJzHV_adRIwW-2" target="b32nRzFaaJzHV_adRIwW-25" edge="1">
          <mxGeometry width="50" height="50" relative="1" as="geometry">
            <mxPoint x="580" y="350" as="sourcePoint" />
            <mxPoint x="630" y="300" as="targetPoint" />
          </mxGeometry>
        </mxCell>
        <mxCell id="b32nRzFaaJzHV_adRIwW-30" value="" style="endArrow=none;html=1;rounded=0;entryX=0.5;entryY=1;entryDx=0;entryDy=0;exitX=0.5;exitY=0;exitDx=0;exitDy=0;" parent="1" source="b32nRzFaaJzHV_adRIwW-2" target="b32nRzFaaJzHV_adRIwW-26" edge="1">
          <mxGeometry width="50" height="50" relative="1" as="geometry">
            <mxPoint x="580" y="350" as="sourcePoint" />
            <mxPoint x="630" y="300" as="targetPoint" />
          </mxGeometry>
        </mxCell>
        <mxCell id="b32nRzFaaJzHV_adRIwW-31" value="" style="endArrow=none;html=1;rounded=0;entryX=0.5;entryY=0;entryDx=0;entryDy=0;exitX=0.5;exitY=1;exitDx=0;exitDy=0;" parent="1" source="b32nRzFaaJzHV_adRIwW-5" target="b32nRzFaaJzHV_adRIwW-23" edge="1">
          <mxGeometry width="50" height="50" relative="1" as="geometry">
            <mxPoint x="680" y="560" as="sourcePoint" />
            <mxPoint x="630" y="300" as="targetPoint" />
          </mxGeometry>
        </mxCell>
        <mxCell id="b32nRzFaaJzHV_adRIwW-32" value="" style="endArrow=none;html=1;rounded=0;exitX=0.5;exitY=0;exitDx=0;exitDy=0;entryX=0.5;entryY=1;entryDx=0;entryDy=0;" parent="1" source="b32nRzFaaJzHV_adRIwW-21" target="b32nRzFaaJzHV_adRIwW-5" edge="1">
          <mxGeometry width="50" height="50" relative="1" as="geometry">
            <mxPoint x="580" y="350" as="sourcePoint" />
            <mxPoint x="630" y="300" as="targetPoint" />
          </mxGeometry>
        </mxCell>
        <mxCell id="b32nRzFaaJzHV_adRIwW-34" value="" style="endArrow=none;html=1;rounded=0;entryX=0.5;entryY=1;entryDx=0;entryDy=0;exitX=0.5;exitY=0;exitDx=0;exitDy=0;" parent="1" target="b32nRzFaaJzHV_adRIwW-6" edge="1" source="b32nRzFaaJzHV_adRIwW-24">
          <mxGeometry width="50" height="50" relative="1" as="geometry">
            <mxPoint x="409" y="600" as="sourcePoint" />
            <mxPoint x="630" y="300" as="targetPoint" />
          </mxGeometry>
        </mxCell>
        <mxCell id="b32nRzFaaJzHV_adRIwW-35" value="" style="endArrow=none;html=1;rounded=0;exitX=0.5;exitY=1;exitDx=0;exitDy=0;entryX=0.5;entryY=0;entryDx=0;entryDy=0;" parent="1" source="b32nRzFaaJzHV_adRIwW-4" target="b32nRzFaaJzHV_adRIwW-20" edge="1">
          <mxGeometry width="50" height="50" relative="1" as="geometry">
            <mxPoint x="580" y="350" as="sourcePoint" />
            <mxPoint x="630" y="300" as="targetPoint" />
          </mxGeometry>
        </mxCell>
        <mxCell id="b32nRzFaaJzHV_adRIwW-36" value="" style="endArrow=none;html=1;rounded=0;exitX=0.5;exitY=1;exitDx=0;exitDy=0;entryX=0.5;entryY=0;entryDx=0;entryDy=0;" parent="1" source="b32nRzFaaJzHV_adRIwW-4" target="b32nRzFaaJzHV_adRIwW-19" edge="1">
          <mxGeometry width="50" height="50" relative="1" as="geometry">
            <mxPoint x="580" y="350" as="sourcePoint" />
            <mxPoint x="630" y="300" as="targetPoint" />
          </mxGeometry>
        </mxCell>
        <mxCell id="PZhAeW0DjkJNFAGVAcDf-1" value="" style="endArrow=none;html=1;rounded=0;" edge="1" parent="1" target="b32nRzFaaJzHV_adRIwW-3">
          <mxGeometry width="50" height="50" relative="1" as="geometry">
            <mxPoint x="176" y="360" as="sourcePoint" />
            <mxPoint x="176" y="170" as="targetPoint" />
          </mxGeometry>
        </mxCell>
        <mxCell id="b32nRzFaaJzHV_adRIwW-3" value="corso-studente" style="shape=associativeEntity;whiteSpace=wrap;html=1;align=center;" parent="1" vertex="1">
          <mxGeometry x="105" y="300" width="140" height="60" as="geometry" />
        </mxCell>
      </root>
    </mxGraphModel>
  </diagram>
</mxfile>
